<svg width="419" height="54" viewBox="0 0 419 54" fill="none" xmlns="http://www.w3.org/2000/svg">
<rect x="0.5" y="0.5" width="418" height="53" rx="5.5" fill="white" stroke="#DDDDDD"/>
<path opacity="0.99" d="M115 2H161V52H115C113.939 52 112.922 51.5786 112.172 50.8284C111.421 50.0783 111 49.0609 111 48V6C111 4.93913 111.421 3.92172 112.172 3.17157C112.922 2.42143 113.939 2 115 2V2Z" fill="white"/>
<path d="M135.5 19.552C137.14 19.5256 138.725 20.1452 139.913 21.277L143.195 17.995C141.113 16.0409 138.355 14.9677 135.5 15C133.369 14.9997 131.279 15.5919 129.465 16.7106C127.651 17.8293 126.184 19.4304 125.227 21.335L129.051 24.3C129.494 22.9333 130.354 21.74 131.511 20.8882C132.668 20.0364 134.063 19.5691 135.5 19.552V19.552Z" fill="#EA4335"/>
<path d="M146.511 26.763C146.507 26.0327 146.446 25.3038 146.329 24.583H135.5V28.905H141.7C141.566 29.6017 141.294 30.2647 140.901 30.8553C140.508 31.4459 140.001 31.9523 139.41 32.345L143.11 35.22C144.234 34.1248 145.118 32.8068 145.703 31.3505C146.289 29.8942 146.563 28.3317 146.51 26.763H146.511Z" fill="#4285F4"/>
<path d="M129.046 28.7C128.808 27.9909 128.685 27.2481 128.682 26.5C128.682 25.7517 128.805 25.0085 129.046 24.3L125.222 21.335C124.417 22.9379 123.998 24.7068 123.998 26.5005C123.998 28.2942 124.417 30.0631 125.222 31.666L129.046 28.7Z" fill="#FBBC05"/>
<path d="M135.5 38C138.301 38.0809 141.026 37.0845 143.114 35.216L139.414 32.341C138.25 33.0906 136.888 33.4738 135.504 33.441C134.067 33.4243 132.67 32.9575 131.512 32.1062C130.354 31.2549 129.491 30.0619 129.046 28.695L125.222 31.661C126.179 33.5667 127.647 35.1687 129.462 36.2881C131.277 37.4075 133.368 38.0002 135.5 38V38Z" fill="#34A853"/>
<path d="M161.409 32V20.3636H162.818V30.75H168.227V32H161.409ZM173.773 32.1818C172.985 32.1818 172.294 31.9943 171.699 31.6193C171.108 31.2443 170.646 30.7197 170.312 30.0455C169.983 29.3712 169.818 28.5833 169.818 27.6818C169.818 26.7727 169.983 25.9792 170.312 25.3011C170.646 24.6231 171.108 24.0966 171.699 23.7216C172.294 23.3466 172.985 23.1591 173.773 23.1591C174.561 23.1591 175.25 23.3466 175.841 23.7216C176.436 24.0966 176.898 24.6231 177.227 25.3011C177.561 25.9792 177.727 26.7727 177.727 27.6818C177.727 28.5833 177.561 29.3712 177.227 30.0455C176.898 30.7197 176.436 31.2443 175.841 31.6193C175.25 31.9943 174.561 32.1818 173.773 32.1818ZM173.773 30.9773C174.371 30.9773 174.864 30.8239 175.25 30.517C175.636 30.2102 175.922 29.8068 176.108 29.3068C176.294 28.8068 176.386 28.2652 176.386 27.6818C176.386 27.0985 176.294 26.5549 176.108 26.0511C175.922 25.5473 175.636 25.1402 175.25 24.8295C174.864 24.5189 174.371 24.3636 173.773 24.3636C173.174 24.3636 172.682 24.5189 172.295 24.8295C171.909 25.1402 171.623 25.5473 171.438 26.0511C171.252 26.5549 171.159 27.0985 171.159 27.6818C171.159 28.2652 171.252 28.8068 171.438 29.3068C171.623 29.8068 171.909 30.2102 172.295 30.517C172.682 30.8239 173.174 30.9773 173.773 30.9773ZM183.297 35.4545C182.649 35.4545 182.092 35.3712 181.626 35.2045C181.161 35.0417 180.772 34.8258 180.462 34.5568C180.155 34.2917 179.911 34.0076 179.729 33.7045L180.797 32.9545C180.918 33.1136 181.071 33.2955 181.257 33.5C181.443 33.7083 181.696 33.8883 182.018 34.0398C182.344 34.1951 182.77 34.2727 183.297 34.2727C184.001 34.2727 184.583 34.1023 185.041 33.7614C185.5 33.4205 185.729 32.8864 185.729 32.1591V30.3864H185.615C185.517 30.5455 185.376 30.7424 185.195 30.9773C185.017 31.2083 184.759 31.4148 184.422 31.5966C184.089 31.7746 183.638 31.8636 183.07 31.8636C182.365 31.8636 181.732 31.697 181.172 31.3636C180.615 31.0303 180.174 30.5455 179.848 29.9091C179.526 29.2727 179.365 28.5 179.365 27.5909C179.365 26.697 179.522 25.9186 179.837 25.2557C180.151 24.589 180.589 24.0739 181.149 23.7102C181.71 23.3428 182.357 23.1591 183.092 23.1591C183.661 23.1591 184.111 23.2538 184.445 23.4432C184.782 23.6288 185.039 23.8409 185.217 24.0795C185.399 24.3144 185.539 24.5076 185.638 24.6591H185.774V23.2727H187.07V32.25C187.07 33 186.899 33.6098 186.558 34.0795C186.221 34.553 185.767 34.8996 185.195 35.1193C184.626 35.3428 183.994 35.4545 183.297 35.4545ZM183.251 30.6591C183.789 30.6591 184.244 30.536 184.615 30.2898C184.986 30.0436 185.268 29.6894 185.462 29.2273C185.655 28.7652 185.751 28.2121 185.751 27.5682C185.751 26.9394 185.657 26.3845 185.467 25.9034C185.278 25.4223 184.998 25.0455 184.626 24.7727C184.255 24.5 183.797 24.3636 183.251 24.3636C182.683 24.3636 182.21 24.5076 181.831 24.7955C181.456 25.0833 181.174 25.4697 180.984 25.9545C180.799 26.4394 180.706 26.9773 180.706 27.5682C180.706 28.1742 180.801 28.7102 180.99 29.1761C181.183 29.6383 181.467 30.0019 181.842 30.267C182.221 30.5284 182.691 30.6591 183.251 30.6591ZM189.524 32V23.2727H190.865V32H189.524ZM190.206 21.8182C189.945 21.8182 189.719 21.7292 189.53 21.5511C189.344 21.3731 189.251 21.1591 189.251 20.9091C189.251 20.6591 189.344 20.4451 189.53 20.267C189.719 20.089 189.945 20 190.206 20C190.467 20 190.691 20.089 190.876 20.267C191.066 20.4451 191.161 20.6591 191.161 20.9091C191.161 21.1591 191.066 21.3731 190.876 21.5511C190.691 21.7292 190.467 21.8182 190.206 21.8182ZM194.662 26.75V32H193.321V23.2727H194.616V24.6364H194.73C194.935 24.1932 195.245 23.8371 195.662 23.5682C196.079 23.2955 196.616 23.1591 197.276 23.1591C197.866 23.1591 198.384 23.2803 198.827 23.5227C199.27 23.7614 199.615 24.125 199.861 24.6136C200.107 25.0985 200.23 25.7121 200.23 26.4545V32H198.889V26.5455C198.889 25.8598 198.711 25.3258 198.355 24.9432C197.999 24.5568 197.51 24.3636 196.889 24.3636C196.461 24.3636 196.079 24.4564 195.741 24.642C195.408 24.8277 195.145 25.0985 194.952 25.4545C194.759 25.8106 194.662 26.2424 194.662 26.75ZM209.158 32L206.499 23.2727H207.908L209.794 29.9545H209.885L211.749 23.2727H213.18L215.021 29.9318H215.112L216.999 23.2727H218.408L215.749 32H214.43L212.521 25.2955H212.385L210.476 32H209.158ZM220.18 32V23.2727H221.521V32H220.18ZM220.862 21.8182C220.601 21.8182 220.375 21.7292 220.186 21.5511C220 21.3731 219.908 21.1591 219.908 20.9091C219.908 20.6591 220 20.4451 220.186 20.267C220.375 20.089 220.601 20 220.862 20C221.124 20 221.347 20.089 221.533 20.267C221.722 20.4451 221.817 20.6591 221.817 20.9091C221.817 21.1591 221.722 21.3731 221.533 21.5511C221.347 21.7292 221.124 21.8182 220.862 21.8182ZM227.773 23.2727V24.4091H223.25V23.2727H227.773ZM224.568 21.1818H225.909V29.5C225.909 29.8788 225.964 30.1629 226.074 30.3523C226.188 30.5379 226.331 30.6629 226.506 30.7273C226.684 30.7879 226.871 30.8182 227.068 30.8182C227.216 30.8182 227.337 30.8106 227.432 30.7955C227.527 30.7765 227.602 30.7614 227.659 30.75L227.932 31.9545C227.841 31.9886 227.714 32.0227 227.551 32.0568C227.388 32.0947 227.182 32.1136 226.932 32.1136C226.553 32.1136 226.182 32.0322 225.818 31.8693C225.458 31.7064 225.159 31.4583 224.92 31.125C224.686 30.7917 224.568 30.3712 224.568 29.8636V21.1818ZM231.318 26.75V32H229.977V20.3636H231.318V24.6364H231.432C231.636 24.1856 231.943 23.8277 232.352 23.5625C232.765 23.2936 233.314 23.1591 234 23.1591C234.595 23.1591 235.116 23.2784 235.562 23.517C236.009 23.7519 236.356 24.1136 236.602 24.6023C236.852 25.0871 236.977 25.7045 236.977 26.4545V32H235.636V26.5455C235.636 25.8523 235.456 25.3163 235.097 24.9375C234.741 24.5549 234.246 24.3636 233.614 24.3636C233.174 24.3636 232.78 24.4564 232.432 24.642C232.087 24.8277 231.814 25.0985 231.614 25.4545C231.417 25.8106 231.318 26.2424 231.318 26.75ZM252.067 24C251.942 23.6174 251.777 23.2746 251.572 22.9716C251.372 22.6648 251.131 22.4034 250.851 22.1875C250.574 21.9716 250.26 21.8068 249.908 21.6932C249.555 21.5795 249.169 21.5227 248.749 21.5227C248.059 21.5227 247.432 21.7008 246.868 22.0568C246.304 22.4129 245.855 22.9375 245.521 23.6307C245.188 24.3239 245.021 25.1742 245.021 26.1818C245.021 27.1894 245.19 28.0398 245.527 28.733C245.864 29.4261 246.321 29.9508 246.896 30.3068C247.472 30.6629 248.12 30.8409 248.839 30.8409C249.506 30.8409 250.093 30.6989 250.601 30.4148C251.112 30.1269 251.51 29.7216 251.794 29.1989C252.082 28.6723 252.226 28.053 252.226 27.3409L252.658 27.4318H249.158V26.1818H253.589V27.4318C253.589 28.3902 253.385 29.2235 252.976 29.9318C252.571 30.6402 252.01 31.1894 251.294 31.5795C250.582 31.9659 249.764 32.1591 248.839 32.1591C247.809 32.1591 246.904 31.9167 246.124 31.4318C245.347 30.947 244.741 30.2576 244.305 29.3636C243.874 28.4697 243.658 27.4091 243.658 26.1818C243.658 25.2614 243.781 24.4337 244.027 23.6989C244.277 22.9602 244.629 22.3314 245.084 21.8125C245.538 21.2936 246.076 20.8958 246.697 20.6193C247.319 20.3428 248.002 20.2045 248.749 20.2045C249.362 20.2045 249.934 20.2973 250.464 20.483C250.999 20.6648 251.474 20.9242 251.891 21.2614C252.311 21.5947 252.661 21.9943 252.942 22.4602C253.222 22.9223 253.415 23.4356 253.521 24H252.067ZM259.366 32.1818C258.579 32.1818 257.887 31.9943 257.293 31.6193C256.702 31.2443 256.24 30.7197 255.906 30.0455C255.577 29.3712 255.412 28.5833 255.412 27.6818C255.412 26.7727 255.577 25.9792 255.906 25.3011C256.24 24.6231 256.702 24.0966 257.293 23.7216C257.887 23.3466 258.579 23.1591 259.366 23.1591C260.154 23.1591 260.844 23.3466 261.435 23.7216C262.029 24.0966 262.491 24.6231 262.821 25.3011C263.154 25.9792 263.321 26.7727 263.321 27.6818C263.321 28.5833 263.154 29.3712 262.821 30.0455C262.491 30.7197 262.029 31.2443 261.435 31.6193C260.844 31.9943 260.154 32.1818 259.366 32.1818ZM259.366 30.9773C259.965 30.9773 260.457 30.8239 260.844 30.517C261.23 30.2102 261.516 29.8068 261.702 29.3068C261.887 28.8068 261.98 28.2652 261.98 27.6818C261.98 27.0985 261.887 26.5549 261.702 26.0511C261.516 25.5473 261.23 25.1402 260.844 24.8295C260.457 24.5189 259.965 24.3636 259.366 24.3636C258.768 24.3636 258.276 24.5189 257.889 24.8295C257.503 25.1402 257.217 25.5473 257.031 26.0511C256.846 26.5549 256.753 27.0985 256.753 27.6818C256.753 28.2652 256.846 28.8068 257.031 29.3068C257.217 29.8068 257.503 30.2102 257.889 30.517C258.276 30.8239 258.768 30.9773 259.366 30.9773ZM268.913 32.1818C268.125 32.1818 267.434 31.9943 266.839 31.6193C266.249 31.2443 265.786 30.7197 265.453 30.0455C265.124 29.3712 264.959 28.5833 264.959 27.6818C264.959 26.7727 265.124 25.9792 265.453 25.3011C265.786 24.6231 266.249 24.0966 266.839 23.7216C267.434 23.3466 268.125 23.1591 268.913 23.1591C269.701 23.1591 270.391 23.3466 270.982 23.7216C271.576 24.0966 272.038 24.6231 272.368 25.3011C272.701 25.9792 272.868 26.7727 272.868 27.6818C272.868 28.5833 272.701 29.3712 272.368 30.0455C272.038 30.7197 271.576 31.2443 270.982 31.6193C270.391 31.9943 269.701 32.1818 268.913 32.1818ZM268.913 30.9773C269.512 30.9773 270.004 30.8239 270.391 30.517C270.777 30.2102 271.063 29.8068 271.249 29.3068C271.434 28.8068 271.527 28.2652 271.527 27.6818C271.527 27.0985 271.434 26.5549 271.249 26.0511C271.063 25.5473 270.777 25.1402 270.391 24.8295C270.004 24.5189 269.512 24.3636 268.913 24.3636C268.315 24.3636 267.822 24.5189 267.436 24.8295C267.05 25.1402 266.764 25.5473 266.578 26.0511C266.393 26.5549 266.3 27.0985 266.3 27.6818C266.3 28.2652 266.393 28.8068 266.578 29.3068C266.764 29.8068 267.05 30.2102 267.436 30.517C267.822 30.8239 268.315 30.9773 268.913 30.9773ZM278.438 35.4545C277.79 35.4545 277.233 35.3712 276.767 35.2045C276.301 35.0417 275.913 34.8258 275.602 34.5568C275.295 34.2917 275.051 34.0076 274.869 33.7045L275.938 32.9545C276.059 33.1136 276.212 33.2955 276.398 33.5C276.583 33.7083 276.837 33.8883 277.159 34.0398C277.485 34.1951 277.911 34.2727 278.438 34.2727C279.142 34.2727 279.723 34.1023 280.182 33.7614C280.64 33.4205 280.869 32.8864 280.869 32.1591V30.3864H280.756C280.657 30.5455 280.517 30.7424 280.335 30.9773C280.157 31.2083 279.9 31.4148 279.562 31.5966C279.229 31.7746 278.778 31.8636 278.21 31.8636C277.506 31.8636 276.873 31.697 276.312 31.3636C275.756 31.0303 275.314 30.5455 274.989 29.9091C274.667 29.2727 274.506 28.5 274.506 27.5909C274.506 26.697 274.663 25.9186 274.977 25.2557C275.292 24.589 275.729 24.0739 276.29 23.7102C276.85 23.3428 277.498 23.1591 278.233 23.1591C278.801 23.1591 279.252 23.2538 279.585 23.4432C279.922 23.6288 280.18 23.8409 280.358 24.0795C280.54 24.3144 280.68 24.5076 280.778 24.6591H280.915V23.2727H282.21V32.25C282.21 33 282.04 33.6098 281.699 34.0795C281.362 34.553 280.907 34.8996 280.335 35.1193C279.767 35.3428 279.134 35.4545 278.438 35.4545ZM278.392 30.6591C278.93 30.6591 279.384 30.536 279.756 30.2898C280.127 30.0436 280.409 29.6894 280.602 29.2273C280.795 28.7652 280.892 28.2121 280.892 27.5682C280.892 26.9394 280.797 26.3845 280.608 25.9034C280.419 25.4223 280.138 25.0455 279.767 24.7727C279.396 24.5 278.938 24.3636 278.392 24.3636C277.824 24.3636 277.35 24.5076 276.972 24.7955C276.597 25.0833 276.314 25.4697 276.125 25.9545C275.939 26.4394 275.847 26.9773 275.847 27.5682C275.847 28.1742 275.941 28.7102 276.131 29.1761C276.324 29.6383 276.608 30.0019 276.983 30.267C277.362 30.5284 277.831 30.6591 278.392 30.6591ZM286.006 20.3636V32H284.665V20.3636H286.006ZM292.121 32.1818C291.28 32.1818 290.554 31.9962 289.945 31.625C289.339 31.25 288.871 30.7273 288.541 30.0568C288.215 29.3826 288.053 28.5985 288.053 27.7045C288.053 26.8106 288.215 26.0227 288.541 25.3409C288.871 24.6553 289.329 24.1212 289.916 23.7386C290.507 23.3523 291.196 23.1591 291.984 23.1591C292.439 23.1591 292.888 23.2348 293.331 23.3864C293.774 23.5379 294.178 23.7841 294.541 24.125C294.905 24.4621 295.195 24.9091 295.411 25.4659C295.626 26.0227 295.734 26.7083 295.734 27.5227V28.0909H289.007V26.9318H294.371C294.371 26.4394 294.272 26 294.075 25.6136C293.882 25.2273 293.606 24.9223 293.246 24.6989C292.89 24.4754 292.469 24.3636 291.984 24.3636C291.45 24.3636 290.988 24.4962 290.598 24.7614C290.212 25.0227 289.914 25.3636 289.706 25.7841C289.498 26.2045 289.393 26.6553 289.393 27.1364V27.9091C289.393 28.5682 289.507 29.1269 289.734 29.5852C289.965 30.0398 290.286 30.3864 290.695 30.625C291.104 30.8598 291.579 30.9773 292.121 30.9773C292.473 30.9773 292.791 30.928 293.075 30.8295C293.363 30.7273 293.611 30.5758 293.82 30.375C294.028 30.1705 294.189 29.9167 294.303 29.6136L295.598 29.9773C295.462 30.4167 295.232 30.803 294.911 31.1364C294.589 31.4659 294.191 31.7235 293.717 31.9091C293.244 32.0909 292.712 32.1818 292.121 32.1818Z" fill="#333333"/>
</svg>
