<svg width="418" height="19" viewBox="0 0 418 19" fill="none" xmlns="http://www.w3.org/2000/svg">
<line x1="-4.37114e-08" y1="8.5" x2="154" y2="8.49999" stroke="#E0E0E0"/>
<line x1="268" y1="8.5" x2="418" y2="8.50001" stroke="#E0E0E0"/>
<path d="M210.227 9.18182C210.227 10.4091 210.006 11.4697 209.562 12.3636C209.119 13.2576 208.511 13.947 207.739 14.4318C206.966 14.9167 206.083 15.1591 205.091 15.1591C204.098 15.1591 203.216 14.9167 202.443 14.4318C201.67 13.947 201.063 13.2576 200.619 12.3636C200.176 11.4697 199.955 10.4091 199.955 9.18182C199.955 7.95455 200.176 6.89394 200.619 6C201.063 5.10606 201.67 4.41667 202.443 3.93182C203.216 3.44697 204.098 3.20455 205.091 3.20455C206.083 3.20455 206.966 3.44697 207.739 3.93182C208.511 4.41667 209.119 5.10606 209.562 6C210.006 6.89394 210.227 7.95455 210.227 9.18182ZM208.864 9.18182C208.864 8.17424 208.695 7.32386 208.358 6.63068C208.025 5.9375 207.572 5.41288 207 5.05682C206.432 4.70076 205.795 4.52273 205.091 4.52273C204.386 4.52273 203.748 4.70076 203.176 5.05682C202.608 5.41288 202.155 5.9375 201.818 6.63068C201.485 7.32386 201.318 8.17424 201.318 9.18182C201.318 10.1894 201.485 11.0398 201.818 11.733C202.155 12.4261 202.608 12.9508 203.176 13.3068C203.748 13.6629 204.386 13.8409 205.091 13.8409C205.795 13.8409 206.432 13.6629 207 13.3068C207.572 12.9508 208.025 12.4261 208.358 11.733C208.695 11.0398 208.864 10.1894 208.864 9.18182ZM212.415 15V6.27273H213.71V7.59091H213.801C213.96 7.15909 214.248 6.80871 214.665 6.53977C215.081 6.27083 215.551 6.13636 216.074 6.13636C216.172 6.13636 216.295 6.13826 216.443 6.14205C216.591 6.14583 216.703 6.15152 216.778 6.15909V7.52273C216.733 7.51136 216.629 7.49432 216.466 7.47159C216.307 7.44508 216.138 7.43182 215.96 7.43182C215.536 7.43182 215.157 7.52083 214.824 7.69886C214.494 7.87311 214.233 8.11553 214.04 8.42614C213.85 8.73295 213.756 9.08333 213.756 9.47727V15H212.415Z" fill="black"/>
</svg>
